<svg xmlns="http://www.w3.org/2000/svg" viewBox="0 0 24 24"><title>Fichier 16</title><g id="Calque_2" data-name="Calque 2"><g id="Calque_1-2" data-name="Calque 1"><path d="M22.39,6A11.79,11.79,0,0,1,24,12a12,12,0,0,1-6,10.39A11.79,11.79,0,0,1,12,24,12,12,0,0,1,1.61,18,11.79,11.79,0,0,1,0,12,12,12,0,0,1,6,1.61,11.79,11.79,0,0,1,12,0,12,12,0,0,1,22.39,6ZM15.61,17.39a.84.84,0,0,0-.84-.84h-2V8.34a.84.84,0,0,0-.84-.84H9.68a.84.84,0,0,0-.84.84.83.83,0,0,0,.25.59.8.8,0,0,0,.6.26h1.41v7.36h-2a.84.84,0,1,0,0,1.69h5.67a.84.84,0,0,0,.84-.84ZM11.09,5.17a.8.8,0,0,0,.25.59.85.85,0,0,0,1.2,0,.8.8,0,0,0,.25-.59.84.84,0,0,0-.25-.6.82.82,0,0,0-1.2,0A.84.84,0,0,0,11.09,5.17Z"/></g></g></svg>