<svg xmlns="http://www.w3.org/2000/svg" viewBox="0 0 24 24"><title>Fichier 22</title><g id="Calque_2" data-name="Calque 2"><g id="Calque_1-2" data-name="Calque 1"><path d="M22.39,6A11.79,11.79,0,0,1,24,12a12,12,0,0,1-6,10.39A11.79,11.79,0,0,1,12,24,12,12,0,0,1,1.61,18,11.79,11.79,0,0,1,0,12,12,12,0,0,1,6,1.61,11.79,11.79,0,0,1,12,0,12,12,0,0,1,22.39,6Zm-4,1.78a.84.84,0,0,0-.84-.84.83.83,0,0,0-.61.26L9.23,14.86l-2-3.49a.79.79,0,0,0-.5-.4.81.81,0,0,0-.64.08.83.83,0,0,0-.4.5.76.76,0,0,0,.09.63l2.55,4.48a.83.83,0,0,0,1.15.3,1,1,0,0,0,.19-.14l0,0,8.41-8.46A.76.76,0,0,0,18.35,7.76Z"/></g></g></svg>