<svg xmlns="http://www.w3.org/2000/svg" viewBox="0 0 24 24"><title>Fichier 19</title><path d="M12 0c4.2863636.00082333 8.2468182 2.2879001 10.39 6 1.0633999 1.82010704 1.619367 3.89203384 1.61 6-.0008233 4.2863636-2.2879001 8.2468182-6 10.39-1.820107 1.0633999-3.8920338 1.619367-6 1.61-4.2863636-.0008233-8.24681823-2.2879001-10.39-6C.54660006 16.179893-.00936697 14.1079662 0 12 .00082333 7.7136364 2.2879001 3.75318177 6 1.61 7.82010704.54660006 9.89203384-.00936697 12 0zm0 18.61c.472449-.0166635.868686-.3618929.9498887-.8276094.0812026-.4657165-.1748159-.9246736-.6137466-1.1002459-.4389306-.1755722-.9408455-.0197885-1.2032274.3734563-.2623819.3932448-.2135409.9165054.1170853 1.254399.1966917.2010151.468937.3099132.75.3zm.94-4.55V5.41c.036983-.35713148-.1327016-.70413665-.437283-.89424404-.3045814-.1901074-.6908526-.1901074-.995434 0S11.033017 5.05286852 11.07 5.41v8.65c0 .5191477.4208523.94.94.94s.94-.4208523.94-.94h-.01z" /></svg>