<svg xmlns="http://www.w3.org/2000/svg" viewBox="0 0 24 24"><title>Fichier 20</title><g id="Calque_2" data-name="Calque 2"><g id="Calque_1-2" data-name="Calque 1"><path d="M22.39,6A11.79,11.79,0,0,1,24,12a12,12,0,0,1-6,10.39A11.79,11.79,0,0,1,12,24,12,12,0,0,1,1.61,18,11.79,11.79,0,0,1,0,12,12,12,0,0,1,6,1.61,11.79,11.79,0,0,1,12,0,12,12,0,0,1,22.39,6Zm-9.2,6L16.8,8.37a.82.82,0,0,0,.26-.6.8.8,0,0,0-.25-.59.81.81,0,0,0-.6-.25.88.88,0,0,0-.61.23L12,10.8,8.39,7.17a.88.88,0,0,0-.61-.23.84.84,0,0,0-.84.84.76.76,0,0,0,.26.59L10.8,12,7.2,15.63a.76.76,0,0,0-.26.59.84.84,0,0,0,.84.84.88.88,0,0,0,.61-.23L12,13.2l3.61,3.63a.88.88,0,0,0,.61.23.84.84,0,0,0,.84-.84.76.76,0,0,0-.26-.59Z"/></g></g></svg>