<svg xmlns="http://www.w3.org/2000/svg" viewBox="0 0 24 24"><title>Fichier 28</title><g id="Calque_2" data-name="Calque 2"><g id="Calque_1-2" data-name="Calque 1"><path d="M22.39,6A11.79,11.79,0,0,1,24,12a12,12,0,0,1-6,10.39A11.79,11.79,0,0,1,12,24,12,12,0,0,1,1.61,18,11.79,11.79,0,0,1,0,12,12,12,0,0,1,6,1.61,11.79,11.79,0,0,1,12,0,12,12,0,0,1,22.39,6Zm-.88,10a10.25,10.25,0,0,0,.8-4,10,10,0,0,0-.82-4,10.11,10.11,0,0,0-2.2-3.28A10.43,10.43,0,0,0,16,2.48a10.25,10.25,0,0,0-4-.8,10,10,0,0,0-4,.82,10.11,10.11,0,0,0-3.28,2.2A10.43,10.43,0,0,0,2.48,8a10.25,10.25,0,0,0-.8,4,10,10,0,0,0,.82,4,10.11,10.11,0,0,0,2.2,3.28A10.43,10.43,0,0,0,8,21.52a10.25,10.25,0,0,0,4,.8,10,10,0,0,0,4-.82,10.11,10.11,0,0,0,3.28-2.2A10.43,10.43,0,0,0,21.52,16Zm-9.07-.67a.92.92,0,0,0,.28-.55q0-.66,1.43-2a9.48,9.48,0,0,0,1.58-2,3.91,3.91,0,0,0,.46-1.64,3.74,3.74,0,0,0-1.08-2.88A4.25,4.25,0,0,0,9,6.2a4,4,0,0,0-1.23,3,.84.84,0,1,0,1.69,0,2.45,2.45,0,0,1,.74-1.78A2.42,2.42,0,0,1,12,6.63a2.51,2.51,0,0,1,1.9.82,2.13,2.13,0,0,1,.61,1.62,2.2,2.2,0,0,1-.06.55,2.88,2.88,0,0,1-.42.74A9.8,9.8,0,0,1,13,11.58a10.74,10.74,0,0,0-1.37,1.57A3.09,3.09,0,0,0,11,14.63a.77.77,0,0,0,.18.62.87.87,0,0,0,.57.32h.09A.79.79,0,0,0,12.45,15.34ZM11.85,19a1,1,0,0,0,.71-.29,1,1,0,0,0,0-1.43,1,1,0,0,0-1.43,0,1,1,0,0,0,0,1.43A1,1,0,0,0,11.85,19Z"/></g></g></svg>